 <svg  version="1.0" xmlns="http://www.w3.org/2000/svg"  width="512.000000pt" height="512.000000pt" viewBox="0 0 512.000000 512.000000"  preserveAspectRatio="xMidYMid meet">  <g transform="translate(0.000000,512.000000) scale(0.100000,-0.100000)" fill="#bd0000" stroke="none"> <path d="M1492 4904 c-148 -132 -227 -308 -217 -482 8 -153 111 -387 253 -578 66 -89 281 -314 300 -314 5 0 12 10 15 21 4 15 -4 34 -27 63 -59 72 -116 209 -116 278 0 15 -22 67 -49 114 -55 95 -96 201 -132 339 -20 76 -24 114 -23 245 0 162 12 236 55 324 10 22 19 41 19 43 0 11 -23 -4 -78 -53z m-3 -110 c-28 -98 -30 -276 -3 -429 8 -48 11 -59 16 -75 3 -8 15 -46 27 -84 20 -61 50 -127 116 -254 19 -38 47 -161 41 -179 -3 -7 6 -33 21 -58 45 -82 26 -69 -78 51 -167 194 -300 452 -321 627 -10 78 -9 99 7 166 27 107 68 185 134 252 31 31 57 56 58 55 2 -1 -7 -34 -18 -72z"/> <path d="M1446 4320 c8 -48 66 -232 71 -226 4 4 -27 114 -63 221 -14 39 -14 39 -8 5z"/> <path d="M1521 4075 c0 -5 8 -26 19 -45 11 -19 19 -30 19 -25 0 6 -8 26 -19 45 -11 19 -19 31 -19 25z"/> <path d="M1147 4602 c-202 -253 -166 -568 97 -840 101 -105 340 -284 488 -365 36 -21 68 -37 71 -37 3 0 7 23 9 51 l3 51 -62 49 c-124 99 -310 323 -402 484 -57 99 -116 238 -142 332 -22 80 -30 219 -16 286 4 20 4 37 0 37 -4 -1 -25 -22 -46 -48z m16 -97 c-5 -62 15 -192 37 -240 5 -11 21 -51 35 -89 21 -57 61 -138 119 -241 38 -68 144 -210 201 -269 11 -12 48 -53 83 -93 35 -39 79 -82 98 -95 19 -13 34 -28 34 -35 0 -28 -24 -22 -78 18 -31 24 -74 52 -94 64 -70 37 -244 173 -322 250 -154 152 -226 306 -226 481 0 97 25 189 63 230 15 15 31 41 38 56 6 15 13 28 15 28 1 0 0 -29 -3 -65z"/> <path d="M1113 4395 c0 -22 2 -30 4 -17 2 12 2 30 0 40 -3 9 -5 -1 -4 -23z"/> <path d="M1131 4249 c-1 -23 41 -157 45 -144 2 6 -7 44 -20 85 -14 41 -25 68 -25 59z"/> <path d="M907 4243 c-2 -5 -17 -52 -32 -107 -50 -179 -24 -333 81 -483 78 -110 202 -199 418 -303 119 -58 203 -89 430 -160 16 -5 31 -8 33 -7 1 2 -5 27 -15 57 -17 52 -18 53 -109 100 -251 129 -547 373 -658 542 -80 121 -144 283 -131 333 6 22 -8 44 -17 28z m28 -178 c40 -122 110 -236 210 -344 105 -115 371 -314 540 -406 85 -46 95 -53 95 -72 0 -11 -5 -13 -17 -8 -10 5 -61 23 -113 41 -300 104 -482 203 -612 335 -101 102 -158 230 -158 354 0 75 10 89 27 38 7 -21 10 -27 8 -13 -9 42 -18 165 -12 160 3 -3 17 -41 32 -85z"/> <path d="M924 3935 c4 -16 12 -34 17 -40 5 -5 4 6 -2 25 -15 45 -24 54 -15 15z"/> <path d="M2125 4186 c-116 -16 -283 -55 -291 -67 -6 -11 15 -109 27 -122 4 -5 37 5 73 23 253 120 603 138 878 45 85 -29 78 -27 78 -16 0 13 -142 67 -254 96 -195 52 -341 64 -511 41z m166 -32 c0 -4 -20 -9 -43 -11 -65 -5 -134 -23 -238 -60 -137 -50 -128 -49 -136 -18 -4 18 -2 30 7 35 31 20 192 51 294 58 116 8 117 8 116 -4z"/> <path d="M1751 4039 c-2 -153 49 -305 140 -420 l28 -36 -21 -64 c-33 -99 -30 -242 6 -334 54 -140 135 -231 271 -304 95 -52 132 -84 140 -122 4 -16 10 -29 14 -29 8 0 21 119 21 190 0 37 -1 37 -46 44 -65 9 -124 37 -170 82 -50 50 -89 96 -90 109 -1 6 -2 16 -3 23 0 7 -6 10 -13 6 -6 -4 -8 -3 -5 3 3 5 0 27 -8 49 -35 98 -9 238 62 330 19 25 33 47 31 49 -2 1 -13 7 -25 14 -47 24 -146 116 -190 174 -63 86 -100 164 -122 255 l-19 77 -1 -96z m132 -265 c55 -68 125 -136 171 -166 6 -4 6 -11 -1 -20 -55 -67 -96 -203 -88 -292 15 -161 139 -319 282 -358 21 -5 44 -15 51 -20 13 -11 17 -72 5 -66 -259 114 -394 289 -395 508 0 52 6 108 16 143 20 66 15 105 -19 145 -27 33 -89 156 -99 197 -4 18 -4 26 1 20 5 -5 39 -46 76 -91z"/> <path d="M2566 3973 c-18 -52 -20 -101 -6 -123 10 -16 14 -10 23 35 4 18 5 18 14 -5 6 -14 20 -34 32 -44 27 -25 27 -45 -1 -50 -13 -2 -62 -12 -110 -21 -48 -10 -95 -14 -104 -11 -15 6 -15 9 5 29 22 25 27 52 11 62 -5 3 -10 11 -10 17 0 5 15 1 33 -9 37 -23 101 -38 92 -23 -4 6 -23 19 -43 29 -47 24 -77 56 -98 106 -20 48 -28 33 -22 -44 3 -39 11 -68 28 -91 l24 -33 -45 7 c-52 8 -124 48 -140 77 -17 32 -22 15 -6 -22 32 -77 112 -138 182 -139 17 0 75 11 130 25 55 14 120 25 145 25 l45 1 -29 22 c-74 55 -115 123 -116 190 0 51 -15 47 -34 -10z"/> <path d="M2905 3932 c274 -147 463 -369 554 -652 38 -122 51 -194 51 -294 0 -99 -20 -149 -62 -154 -40 -5 -62 34 -56 101 3 28 9 61 13 72 6 17 4 17 -14 -3 -26 -30 -61 -141 -61 -193 0 -21 12 -75 26 -120 22 -71 25 -95 22 -193 -3 -104 -5 -116 -38 -181 -28 -56 -43 -74 -73 -89 -46 -22 -83 -11 -93 28 -7 28 22 99 62 151 49 65 18 47 -55 -32 -76 -80 -111 -140 -155 -260 -30 -85 -55 -135 -90 -182 -14 -19 -24 -36 -22 -39 9 -9 98 75 139 130 23 32 45 58 49 58 22 0 -53 -153 -116 -237 -117 -155 -320 -282 -502 -314 -35 -6 -64 -15 -64 -20 0 -11 2 -11 97 2 140 19 155 22 256 65 124 53 211 110 310 205 101 94 155 160 211 253 43 71 48 50 13 -48 -56 -152 -230 -334 -418 -435 -107 -58 -208 -90 -324 -105 l-100 -12 41 -21 c58 -31 152 -53 222 -53 235 0 527 173 696 413 55 77 54 98 -1 44 -43 -43 -57 -46 -78 -13 -13 19 -14 32 -7 60 19 66 117 193 163 209 24 8 57 -19 61 -50 5 -40 95 180 119 292 24 106 37 386 21 425 -10 24 -11 24 -11 -10 -3 -123 -73 -323 -147 -421 -36 -46 -91 -95 -100 -87 -2 3 20 52 50 109 85 161 126 302 146 494 46 443 -264 935 -702 1116 -99 41 -117 36 -33 -9z m595 -567 c33 -67 60 -126 60 -132 0 -6 9 -39 21 -74 26 -83 36 -263 20 -384 -20 -149 -54 -259 -127 -413 -57 -122 -61 -137 -36 -151 13 -7 29 -8 44 -2 31 12 95 83 137 153 19 31 38 55 42 53 16 -11 -51 -249 -86 -302 -11 -17 -20 -21 -31 -15 -35 20 -78 0 -140 -64 l-60 -63 4 58 c3 46 1 59 -12 64 -24 9 -40 0 -61 -36 -33 -57 -165 -215 -218 -262 -56 -49 -167 -130 -167 -121 0 3 25 34 56 68 102 113 178 251 172 310 -3 30 -6 33 -35 32 l-31 -2 13 38 c12 35 53 120 62 129 2 3 17 -12 34 -32 25 -31 37 -37 68 -37 143 0 233 264 166 490 -32 108 -38 138 -31 155 6 17 8 16 29 -4 47 -43 104 -20 132 53 14 36 16 66 12 148 -5 106 -7 121 -33 221 -16 64 -85 226 -113 266 -36 52 -30 65 9 21 23 -25 68 -99 100 -165z m-194 -1511 c-6 -29 6 -57 36 -91 l20 -22 -48 -52 c-71 -77 -90 -93 -180 -154 -162 -109 -317 -156 -456 -138 -50 6 -48 20 5 33 147 38 338 147 459 263 64 61 148 163 148 179 0 5 5 8 10 8 6 0 8 -12 6 -26z"/> <path d="M804 3660 c9 -168 52 -266 160 -368 169 -158 369 -216 849 -247 48 -3 87 -3 87 0 0 4 -11 22 -24 42 -23 33 -33 38 -133 63 -185 47 -283 83 -447 167 -245 123 -403 252 -468 382 l-29 56 5 -95z m123 -128 c61 -61 167 -142 243 -184 215 -121 350 -175 593 -238 101 -27 23 -41 -83 -16 -31 7 -68 12 -84 10 -15 -2 -25 0 -22 4 7 6 -143 63 -158 59 -4 -2 25 -15 65 -30 l74 -27 -67 5 c-182 15 -379 93 -490 194 -68 62 -137 162 -98 141 11 -6 25 -18 32 -28 27 -37 117 -102 208 -150 88 -46 217 -98 226 -89 2 2 -38 21 -88 42 -250 107 -411 253 -443 400 l-7 30 21 -33 c11 -17 47 -58 78 -90z"/> <path d="M2710 3720 c-19 -5 -48 -11 -65 -13 -16 -3 -63 -12 -103 -21 -113 -25 -160 -21 -256 19 -18 8 -17 5 5 -35 33 -60 86 -90 162 -90 31 0 57 4 57 9 0 10 -34 21 -70 21 -14 0 -36 7 -50 15 -23 13 -23 14 -5 16 11 0 31 0 45 0 32 -2 181 23 270 46 14 3 57 8 96 10 79 5 116 -7 174 -56 28 -23 48 -30 99 -35 74 -8 111 -25 135 -61 21 -33 17 -39 -18 -25 -72 27 -330 -11 -441 -65 -90 -44 -160 -116 -179 -185 -6 -23 -6 -23 5 -5 19 33 51 66 94 97 22 16 40 35 40 41 0 20 62 54 131 71 36 9 68 15 71 13 2 -3 -19 -21 -46 -41 -53 -37 -117 -115 -127 -153 -3 -13 -11 -23 -16 -23 -10 0 -8 21 6 80 4 17 1 14 -11 -10 -28 -57 -23 -133 16 -213 18 -38 35 -66 38 -64 2 3 -6 25 -18 48 -30 60 -30 133 0 182 13 21 25 37 26 35 2 -2 -1 -24 -6 -50 -19 -87 19 -165 137 -282 50 -50 62 -66 44 -60 -73 24 -100 -4 -59 -60 39 -53 67 -119 74 -180 7 -54 6 -58 -11 -52 -25 7 -34 0 -73 -58 -50 -72 -156 -181 -246 -251 -71 -56 -248 -175 -259 -175 -8 0 -265 -149 -287 -167 -68 -55 -175 -164 -204 -208 -62 -94 -99 -204 -110 -320 -1 -22 -4 -47 -4 -55 -4 -36 -33 47 -36 101 -7 125 60 272 177 386 55 55 256 198 313 224 23 10 33 17 132 82 40 27 73 51 73 53 0 6 -4 4 -96 -56 -40 -26 -133 -77 -207 -114 -198 -100 -298 -191 -371 -341 -63 -128 -69 -241 -19 -365 28 -67 83 -163 102 -174 15 -10 14 -4 -11 56 -18 44 -22 72 -22 163 1 153 32 239 140 380 13 18 22 35 19 38 -3 4 -2 5 1 3 9 -7 149 115 146 126 -1 5 2 7 8 3 6 -4 39 11 73 33 34 21 100 61 147 87 262 147 503 352 566 481 28 58 50 72 40 27 -34 -143 -192 -319 -431 -479 -193 -130 -281 -210 -339 -309 -42 -71 -70 -195 -62 -280 7 -80 15 -115 26 -115 5 0 6 26 3 58 -7 71 16 166 57 236 33 58 93 132 119 145 15 9 17 4 14 -47 -4 -65 8 -144 22 -149 6 -2 10 27 11 70 1 131 53 200 289 384 177 138 250 218 305 335 76 163 56 342 -49 442 -38 37 -40 51 -3 32 71 -39 135 -118 152 -188 7 -27 16 -48 21 -48 12 0 11 13 -6 93 -20 96 -55 154 -150 246 -105 102 -140 166 -133 245 10 126 153 216 342 216 76 0 86 -2 100 -22 16 -22 16 -22 16 10 0 18 -7 49 -15 69 -26 61 -66 83 -169 90 -62 5 -72 8 -95 35 -14 17 -40 37 -58 44 -35 15 -146 17 -203 4z m110 -1407 c0 -5 -13 -17 -28 -27 l-27 -19 24 26 c26 28 31 32 31 20z m-95 -91 c-22 -21 -76 -67 -120 -102 -118 -95 -163 -138 -210 -203 -24 -33 -46 -54 -50 -48 -13 22 -46 10 -92 -31 -43 -41 -45 -41 -30 -13 32 64 182 194 298 260 42 23 138 93 183 132 60 53 75 56 21 5z"/> <path d="M2736 3664 c-22 -8 -41 -15 -42 -17 -1 -1 42 -2 96 -2 108 0 141 -12 104 -40 -24 -19 -73 -19 -98 0 -11 8 -40 15 -65 15 l-46 -1 68 -29 c78 -34 96 -36 136 -15 43 22 46 43 10 76 -25 24 -40 29 -78 28 -25 0 -64 -7 -85 -15z"/> <path d="M2449 3523 c-57 -53 -113 -160 -127 -240 -11 -62 -2 -69 17 -15 8 20 45 69 84 109 69 72 83 101 33 68 -45 -30 -46 -11 -3 36 83 90 82 89 63 89 -9 0 -39 -21 -67 -47z"/> <path d="M2482 3402 c-35 -38 -68 -122 -82 -209 -8 -51 -7 -92 6 -191 31 -240 -10 -400 -147 -581 -147 -193 -333 -291 -554 -291 -51 0 -106 5 -124 11 -45 16 -50 4 -10 -21 128 -78 379 -90 523 -24 l31 15 -45 -6 c-25 -3 -70 -9 -100 -14 -69 -12 -218 -12 -245 -1 -15 6 -5 9 35 9 92 2 289 40 400 77 111 38 240 100 240 116 0 5 -12 0 -27 -11 -37 -27 -241 -108 -313 -125 -73 -16 -71 -3 5 42 135 81 271 251 328 409 44 123 52 195 39 376 -14 193 -7 256 44 365 19 41 32 77 29 80 -2 3 -17 -9 -33 -26z"/> <path d="M875 3250 c3 -14 22 -58 40 -98 61 -131 170 -217 340 -268 79 -23 107 -27 230 -27 120 0 162 5 293 32 84 18 165 36 179 42 l26 10 -24 25 c-22 24 -29 26 -84 20 -160 -16 -544 43 -718 110 -98 38 -202 97 -256 148 -33 30 -33 31 -26 6z m74 -64 c21 -25 143 -94 223 -125 144 -57 351 -97 551 -108 59 -3 104 -9 100 -13 -9 -9 -122 -35 -193 -45 -73 -11 -240 -8 -310 5 -80 15 -211 78 -264 125 -42 37 -31 47 19 17 33 -20 144 -57 150 -50 3 3 -25 17 -63 32 -37 15 -87 40 -112 56 -50 32 -140 120 -123 120 6 0 16 -6 22 -14z"/> <path d="M797 3049 c-16 -55 -33 -142 -39 -192 -13 -115 -4 -388 17 -482 52 -241 182 -486 288 -541 36 -19 34 -9 -8 37 -46 51 -92 144 -111 226 -18 77 -14 166 12 252 15 52 15 54 -8 89 -93 144 -132 386 -89 554 20 75 20 76 -1 117 -11 22 -23 41 -27 41 -3 0 -19 -45 -34 -101z m13 -236 c0 -38 2 -79 5 -93 9 -54 16 -81 25 -105 5 -14 6 -25 3 -25 -4 0 -2 -5 5 -12 7 -7 12 -19 12 -26 0 -8 15 -47 34 -86 l34 -71 -13 -65 c-8 -36 -14 -88 -15 -117 0 -28 -4 -54 -9 -57 -15 -10 -57 112 -82 234 -18 90 -23 149 -23 270 0 85 2 166 6 180 4 14 7 28 7 33 1 4 3 7 6 7 3 0 5 -30 5 -67z"/> <path d="M1960 2879 c-110 -47 -254 -71 -447 -76 -179 -5 -281 7 -361 44 -18 9 -35 14 -37 11 -2 -2 21 -31 51 -65 91 -103 271 -174 400 -159 120 14 302 88 447 183 37 24 67 45 67 46 0 2 -12 12 -27 23 l-28 20 -65 -27z m-21 -65 c-89 -66 -274 -138 -382 -149 -73 -7 -247 40 -247 67 0 5 6 6 13 2 8 -5 9 -4 2 3 -5 5 -31 18 -57 27 -26 10 -58 26 -70 37 -23 18 -23 19 27 4 28 -8 68 -20 90 -26 22 -6 100 -12 173 -12 124 -1 173 -11 100 -20 l-33 -4 36 -1 c41 -2 188 34 294 72 89 32 97 32 54 0z"/> <path d="M1477 2738 c-7 -4 7 -8 31 -8 23 0 42 4 42 9 0 10 -57 9 -73 -1z"/> <path d="M2075 2785 c-80 -60 -251 -147 -355 -181 -73 -24 -102 -28 -203 -28 l-118 -1 38 -32 c57 -49 110 -70 202 -81 148 -18 252 10 349 93 23 20 78 84 122 143 79 105 80 107 57 119 -30 17 -25 18 -92 -32z m11 -61 c-11 -28 -100 -129 -141 -161 -83 -62 -116 -73 -222 -73 -63 0 -107 5 -124 14 -14 7 -42 16 -62 20 -52 10 -55 25 -4 22 60 -4 161 11 224 34 99 37 221 95 283 137 41 27 55 29 46 7z"/> <path d="M1843 2588 c-29 -11 -53 -24 -53 -29 0 -5 11 -4 25 1 36 14 85 40 85 45 0 3 -1 4 -2 4 -2 -1 -27 -10 -55 -21z"/> <path d="M2217 2754 c-28 -58 -119 -175 -179 -229 -61 -56 -156 -111 -208 -120 -19 -3 -36 -8 -39 -11 -14 -13 23 -19 127 -19 183 0 266 41 327 161 26 50 30 70 30 136 0 65 -3 81 -21 98 l-20 21 -17 -37z m16 -149 c-17 -92 -101 -173 -198 -191 l-40 -7 25 22 c23 19 20 19 -33 -5 -83 -37 -106 -26 -27 13 75 37 157 114 221 207 l44 64 7 -36 c4 -20 5 -50 1 -67z"/> <path d="M982 2723 c71 -77 89 -193 49 -317 -51 -154 -46 -265 18 -401 61 -131 143 -207 238 -220 44 -6 204 16 203 28 0 5 -21 10 -47 11 -178 10 -367 258 -252 329 19 12 67 -13 75 -39 2 -8 7 -22 11 -31 13 -36 15 17 3 63 -15 53 -59 94 -100 94 -47 0 -55 27 -40 131 14 94 10 132 -22 216 -22 59 -114 163 -144 163 -15 0 -14 -4 8 -27z m126 -218 c1 -8 3 -21 4 -27 0 -7 -2 -59 -6 -115 l-8 -103 30 -30 c17 -16 38 -30 47 -30 12 0 10 -6 -10 -27 -15 -16 -30 -38 -35 -50 -11 -27 -2 -85 20 -138 19 -43 100 -130 131 -140 10 -4 19 -10 19 -15 0 -7 -17 -8 -63 -1 -22 3 -112 102 -142 155 -69 127 -80 256 -34 408 24 77 25 82 27 111 2 21 18 23 20 2z"/> <path d="M841 1972 c-2 -25 74 -164 119 -220 52 -65 153 -136 225 -158 129 -41 293 -25 408 39 54 30 60 37 92 111 19 43 55 105 80 137 26 33 43 59 40 59 -4 0 -35 -25 -68 -56 -68 -63 -213 -140 -287 -152 -59 -9 -236 -9 -277 1 -124 29 -246 118 -320 233 -7 12 -12 14 -12 6z m308 -268 c25 -8 78 -16 116 -20 75 -6 238 12 243 27 2 5 10 9 17 9 14 0 68 21 109 42 17 9 18 7 12 -19 -10 -39 -43 -72 -96 -95 -146 -64 -277 -65 -407 -1 -54 26 -143 97 -143 114 0 5 23 -2 52 -17 28 -14 72 -32 97 -40z"/> <path d="M2083 1847 c-88 -76 -127 -124 -164 -202 -55 -117 -58 -197 -8 -296 55 -110 155 -170 321 -194 57 -8 107 -10 111 -6 5 5 -7 11 -26 15 -53 10 -149 77 -191 134 -118 161 -111 413 16 575 16 20 26 37 21 37 -4 -1 -40 -29 -80 -63z m-59 -129 c-28 -141 -28 -228 2 -316 18 -55 18 -62 -3 -63 -10 0 0 -7 22 -15 22 -8 44 -22 49 -31 4 -8 24 -33 42 -53 19 -21 34 -40 34 -44 0 -10 -101 32 -140 59 -38 26 -100 89 -100 101 0 3 6 4 13 1 45 -17 58 -16 25 3 -52 28 -66 77 -50 172 13 75 24 101 71 166 35 48 42 51 35 20z"/> <path d="M2240 1665 c-32 -69 -39 -202 -15 -275 24 -73 92 -140 170 -170 84 -32 219 -33 330 -1 64 19 246 99 264 117 14 13 -12 11 -55 -5 -195 -75 -437 -31 -558 99 -65 71 -94 130 -104 217 l-9 68 -23 -50z m40 -167 c11 -24 36 -61 55 -83 43 -49 44 -59 3 -50 -64 14 -77 23 -87 62 -16 58 -13 113 6 113 1 0 12 -19 23 -42z m87 -152 c54 -14 130 -36 168 -50 39 -14 84 -25 100 -26 70 -1 99 -23 46 -35 -101 -22 -246 -9 -317 28 -38 20 -120 107 -100 107 2 0 49 -11 103 -24z"/> <path d="M1619 1575 c-32 -32 -132 -58 -244 -63 l-109 -5 43 -39 c57 -50 162 -120 237 -157 75 -37 184 -81 184 -75 0 3 -11 24 -24 47 -41 71 -67 165 -65 234 3 71 -1 79 -22 58z m-11 -97 c4 -35 -21 -37 -57 -7 -21 17 -22 22 -10 30 7 5 25 8 39 7 19 -2 26 -10 28 -30z m11 -60 c12 -7 21 -23 21 -35 0 -12 5 -34 10 -49 6 -15 8 -29 6 -32 -18 -18 -286 136 -286 165 0 7 12 13 28 13 15 0 33 4 41 9 13 8 123 -35 180 -71z"/> </g> </svg> 